<svg id="Layer_1" data-name="Layer 1" xmlns="http://www.w3.org/2000/svg" viewBox="0 0 6245.46 4652.95"><defs><style>.cls-1,.cls-2,.cls-3{fill:#fff;stroke:#fff;stroke-miterlimit:10;}.cls-2{stroke-width:57.08px;}.cls-3{isolation:isolate;font-size:4.41px;font-family:Arial-BoldMT, Arial;font-weight:700;}</style></defs><path class="cls-1" d="M1885.45,1660.18c207-206.42,544.93-206.42,751.35,0l717.56,716.94L5322.12,201.71c196-216.86,532.64-234.06,749.5-37.47,220.55,176.32,226.7,541.24,37.48,749.5C5360.82,1741.89,4546.81,2680,3767.2,3503.26c-217.48,230.38-538.17,231-770.39,19.65L1885.45,2411.53C1679,2204.49,1679,1866.6,1885.45,1660.18Z" transform="translate(0.5)"/><path class="cls-2" d="M5390.4,1940.81c0-56.86,45.73-103.21,102.59-103.21a103.4,103.4,0,0,1,103.22,103.21V4212.17c0,226.83-185.42,412.24-412.24,412.24H1412.58c-226.82,0-412.24-185.41-412.24-412.24V440.79c0-226.83,185.42-412.25,412.24-412.25h3563.1c56.86,0,102.6,46.36,102.6,103.22a102.35,102.35,0,0,1-102.1,102.6H1412.58c-113.1,0-206.43,93.32-206.43,206.43V4212.17c0,113.1,93.33,206.43,206.43,206.43H5184c113.1,0,206.43-93.33,206.43-206.43Z" transform="translate(0.5)"/><text class="cls-3" transform="translate(0.5 4637.63)">Created by 4u</text><text class="cls-3" transform="translate(0.5 4642.04)">from the Noun Project</text></svg>